<svg xmlns="http://www.w3.org/2000/svg" width="105.719" height="109.563" viewBox="0 0 105.719 109.563">
  <metadata><?xpacket begin="﻿" id="W5M0MpCehiHzreSzNTczkc9d"?>
<x:xmpmeta xmlns:x="adobe:ns:meta/" x:xmptk="Adobe XMP Core 5.6-c140 79.160451, 2017/05/06-01:08:21        ">
   <rdf:RDF xmlns:rdf="http://www.w3.org/1999/02/22-rdf-syntax-ns#">
      <rdf:Description rdf:about=""/>
   </rdf:RDF>
</x:xmpmeta>
                                                                                                    
                                                                                                    
                                                                                                    
                                                                                                    
                                                                                                    
                                                                                                    
                                                                                                    
                                                                                                    
                                                                                                    
                                                                                                    
                                                                                                    
                                                                                                    
                                                                                                    
                                                                                                    
                                                                                                    
                                                                                                    
                                                                                                    
                                                                                                    
                                                                                                    
                                                                                                    
                           
<?xpacket end="w"?></metadata>
<defs>
    <style>
      .cls-1 {
        fill: #f0ff24;
        fill-rule: evenodd;
      }
    </style>
  </defs>
  <path id="形状_13" data-name="形状 13" class="cls-1" d="M586.7,677.984a7.834,7.834,0,0,0-4.731-6.581l-26.3-11.4-5.309-27.818A7.971,7.971,0,0,0,536.6,628.5l-18.507,21.437-28.476-3.28a7.831,7.831,0,0,0-7.387,3.334,7.454,7.454,0,0,0-.237,7.962l14.712,25.354-12.08,26.451a7.561,7.561,0,0,0,1.187,8.061,8.07,8.07,0,0,0,7.94,2.588l27.307-6.415,20.451,19.212a8.072,8.072,0,0,0,8.169,1.728,7.548,7.548,0,0,0,5.048-6.39L557.5,699.6,582.93,685A7.5,7.5,0,0,0,586.7,677.984Z" transform="translate(-480.969 -625.812)"/>
</svg>
