<svg xmlns="http://www.w3.org/2000/svg" width="106" height="110" viewBox="0 0 106 110">
  <metadata><?xpacket begin="﻿" id="W5M0MpCehiHzreSzNTczkc9d"?>
<x:xmpmeta xmlns:x="adobe:ns:meta/" x:xmptk="Adobe XMP Core 5.6-c140 79.160451, 2017/05/06-01:08:21        ">
   <rdf:RDF xmlns:rdf="http://www.w3.org/1999/02/22-rdf-syntax-ns#">
      <rdf:Description rdf:about=""/>
   </rdf:RDF>
</x:xmpmeta>
                                                                                                    
                                                                                                    
                                                                                                    
                                                                                                    
                                                                                                    
                                                                                                    
                                                                                                    
                                                                                                    
                                                                                                    
                                                                                                    
                                                                                                    
                                                                                                    
                                                                                                    
                                                                                                    
                                                                                                    
                                                                                                    
                                                                                                    
                                                                                                    
                                                                                                    
                                                                                                    
                           
<?xpacket end="w"?></metadata>
<defs>
    <style>
      .cls-1 {
        fill: #f0ff24;
        fill-rule: evenodd;
      }
    </style>
  </defs>
  <path id="形状_13" data-name="形状 13" class="cls-1" d="M166.991,677.38a7.865,7.865,0,0,1,4.743-6.608L198.1,659.331l5.324-27.929a7.987,7.987,0,0,1,13.8-3.7l18.556,21.522,28.552-3.293a7.852,7.852,0,0,1,7.407,3.347,7.5,7.5,0,0,1,.237,7.994l-14.751,25.455,12.112,26.557a7.6,7.6,0,0,1-1.191,8.093,8.082,8.082,0,0,1-7.96,2.6l-27.38-6.44-20.5,19.288a8.088,8.088,0,0,1-8.191,1.736,7.579,7.579,0,0,1-5.062-6.416l-2.777-29.062-25.5-14.655A7.527,7.527,0,0,1,166.991,677.38Z" transform="translate(-167 -625)"/>
</svg>
