<svg xmlns="http://www.w3.org/2000/svg" width="158.438" height="153" viewBox="0 0 158.438 153">
  <metadata><?xpacket begin="﻿" id="W5M0MpCehiHzreSzNTczkc9d"?>
<x:xmpmeta xmlns:x="adobe:ns:meta/" x:xmptk="Adobe XMP Core 5.6-c140 79.160451, 2017/05/06-01:08:21        ">
   <rdf:RDF xmlns:rdf="http://www.w3.org/1999/02/22-rdf-syntax-ns#">
      <rdf:Description rdf:about=""/>
   </rdf:RDF>
</x:xmpmeta>
                                                                                                    
                                                                                                    
                                                                                                    
                                                                                                    
                                                                                                    
                                                                                                    
                                                                                                    
                                                                                                    
                                                                                                    
                                                                                                    
                                                                                                    
                                                                                                    
                                                                                                    
                                                                                                    
                                                                                                    
                                                                                                    
                                                                                                    
                                                                                                    
                                                                                                    
                                                                                                    
                           
<?xpacket end="w"?></metadata>
<defs>
    <style>
      .cls-1 {
        fill: #f0ff24;
        fill-rule: evenodd;
      }
    </style>
  </defs>
  <path id="形状_13" data-name="形状 13" class="cls-1" d="M454.644,630.042a11.394,11.394,0,0,0-9.122-7.465l-41.227-6.11L386.367,579.39a11.592,11.592,0,0,0-20.718,0l-17.927,37.078-41.234,6.11a11.39,11.39,0,0,0-9.122,7.464,10.84,10.84,0,0,0,2.664,11.272l30.208,30.077-7.012,41.7a11,11,0,0,0,4.7,10.877,11.735,11.735,0,0,0,12.126.646L376,705.328l35.958,19.288a11.735,11.735,0,0,0,12.126-.646,10.981,10.981,0,0,0,4.686-10.877l-7-41.7,30.23-30.077A10.9,10.9,0,0,0,454.644,630.042Z" transform="translate(-296.781 -573)"/>
</svg>
